<svg xmlns="http://www.w3.org/2000/svg" viewBox="0 0 1200 640" preserveAspectRatio="xMidYMax slice">
<defs>
<linearGradient id="sky" x1="0" y1="0" x2="0" y2="1">
  <stop offset="0" stop-color="#e85d04"/><stop offset=".45" stop-color="#f48c06"/>
  <stop offset=".78" stop-color="#e5383b"/><stop offset="1" stop-color="#d00000"/>
</linearGradient>
<radialGradient id="sun" cx=".5" cy=".5" r=".5">
  <stop offset="0" stop-color="#ffdd88" stop-opacity=".8"/><stop offset="1" stop-color="#ffdd88" stop-opacity="0"/>
</radialGradient>
<g id="cl"><ellipse cx="0" cy="0" rx="58" ry="20" fill="#fff6e6"/><ellipse cx="-38" cy="8" rx="34" ry="14" fill="#fff6e6"/><ellipse cx="40" cy="7" rx="40" ry="15" fill="#fff6e6"/><ellipse cx="8" cy="-12" rx="30" ry="13" fill="#fffdf5"/><ellipse cx="-30" cy="14" rx="44" ry="10" fill="#f3e0c0" opacity=".7"/></g>
<g id="sf">
  <line x1="0" y1="6" x2="0" y2="26" stroke="#2c5f2d" stroke-width="2.4"/>
  <g fill="#fcd019" stroke="#c99700" stroke-width=".6">
    <ellipse cx="0" cy="-9" rx="2.6" ry="5.5"/><ellipse cx="0" cy="9" rx="2.6" ry="5.5"/>
    <ellipse cx="-9" cy="0" rx="5.5" ry="2.6"/><ellipse cx="9" cy="0" rx="5.5" ry="2.6"/>
    <ellipse cx="-6.4" cy="-6.4" rx="4.4" ry="2.4" transform="rotate(-45)"/><ellipse cx="6.4" cy="6.4" rx="4.4" ry="2.4" transform="rotate(-45)"/>
    <ellipse cx="-6.4" cy="6.4" rx="4.4" ry="2.4" transform="rotate(45)"/><ellipse cx="6.4" cy="-6.4" rx="4.4" ry="2.4" transform="rotate(45)"/>
  </g>
  <circle r="4.6" fill="#5c3317"/><circle r="4.6" fill="none" stroke="#3d2211" stroke-width="1"/>
</g>
</defs>
<rect width="1200" height="640" fill="url(#sky)"/>
<circle cx="600" cy="430" r="320" fill="url(#sun)"/>
<use href="#cl" transform="translate(180,110) scale(1.1)"/>
<use href="#cl" transform="translate(560,70) scale(.8)"/>
<use href="#cl" transform="translate(920,140) scale(1.35)"/>
<use href="#cl" transform="translate(1120,60) scale(.7)"/>
<use href="#cl" transform="translate(360,200) scale(.6)" opacity=".9"/>
<path d="M0 470 Q200 400 420 445 T800 430 T1200 455 V640 H0 Z" fill="#3a7d44"/>
<path d="M0 500 Q300 440 640 480 T1200 490 V640 H0 Z" fill="#2c5f2d"/>
<path d="M0 540 Q400 500 1200 535 V640 H0 Z" fill="#1e4620"/>
<use href="#sf" transform="translate(119,495) scale(0.65) rotate(7)"/><use href="#sf" transform="translate(207,466) scale(0.54) rotate(7)"/><use href="#sf" transform="translate(801,555) scale(1.26) rotate(2)"/><use href="#sf" transform="translate(382,466) scale(0.56) rotate(-5)"/><use href="#sf" transform="translate(173,474) scale(0.55) rotate(-6)"/><use href="#sf" transform="translate(1025,455) scale(0.39) rotate(-11)"/><use href="#sf" transform="translate(1157,448) scale(0.39) rotate(-11)"/><use href="#sf" transform="translate(1183,451) scale(0.29) rotate(-10)"/><use href="#sf" transform="translate(761,554) scale(1.27) rotate(-3)"/><use href="#sf" transform="translate(54,463) scale(0.52) rotate(7)"/><use href="#sf" transform="translate(615,486) scale(0.66) rotate(8)"/><use href="#sf" transform="translate(1194,474) scale(0.50) rotate(-11)"/><use href="#sf" transform="translate(322,444) scale(0.39) rotate(-10)"/><use href="#sf" transform="translate(456,477) scale(0.48) rotate(1)"/><use href="#sf" transform="translate(665,445) scale(0.37) rotate(-2)"/><use href="#sf" transform="translate(1073,518) scale(0.98) rotate(-7)"/><use href="#sf" transform="translate(409,451) scale(0.35) rotate(5)"/><use href="#sf" transform="translate(394,495) scale(0.75) rotate(-11)"/><use href="#sf" transform="translate(310,444) scale(0.31) rotate(6)"/><use href="#sf" transform="translate(354,514) scale(0.92) rotate(2)"/><use href="#sf" transform="translate(697,478) scale(0.56) rotate(2)"/><use href="#sf" transform="translate(663,597) scale(1.80) rotate(0)"/><use href="#sf" transform="translate(453,607) scale(1.74) rotate(-9)"/><use href="#sf" transform="translate(852,446) scale(0.32) rotate(-4)"/><use href="#sf" transform="translate(1156,454) scale(0.41) rotate(11)"/><use href="#sf" transform="translate(484,513) scale(0.96) rotate(-12)"/><use href="#sf" transform="translate(495,474) scale(0.46) rotate(-9)"/><use href="#sf" transform="translate(589,527) scale(0.91) rotate(-7)"/><use href="#sf" transform="translate(941,519) scale(0.89) rotate(8)"/><use href="#sf" transform="translate(557,521) scale(0.91) rotate(6)"/><use href="#sf" transform="translate(330,492) scale(0.70) rotate(-5)"/><use href="#sf" transform="translate(-19,593) scale(1.79) rotate(-12)"/><use href="#sf" transform="translate(719,495) scale(0.73) rotate(2)"/><use href="#sf" transform="translate(1222,517) scale(0.89) rotate(-8)"/><use href="#sf" transform="translate(685,445) scale(0.30) rotate(12)"/><use href="#sf" transform="translate(563,448) scale(0.39) rotate(7)"/><use href="#sf" transform="translate(864,513) scale(0.98) rotate(11)"/><use href="#sf" transform="translate(776,448) scale(0.37) rotate(10)"/><use href="#sf" transform="translate(1192,455) scale(0.34) rotate(-9)"/><use href="#sf" transform="translate(1213,452) scale(0.34) rotate(-12)"/><use href="#sf" transform="translate(170,550) scale(1.32) rotate(12)"/><use href="#sf" transform="translate(179,458) scale(0.38) rotate(-3)"/><use href="#sf" transform="translate(997,457) scale(0.35) rotate(9)"/><use href="#sf" transform="translate(732,476) scale(0.51) rotate(-10)"/><use href="#sf" transform="translate(874,604) scale(1.86) rotate(4)"/><use href="#sf" transform="translate(475,470) scale(0.52) rotate(0)"/><use href="#sf" transform="translate(567,485) scale(0.71) rotate(3)"/><use href="#sf" transform="translate(1009,474) scale(0.55) rotate(2)"/><use href="#sf" transform="translate(439,460) scale(0.33) rotate(3)"/><use href="#sf" transform="translate(406,452) scale(0.33) rotate(4)"/><use href="#sf" transform="translate(490,548) scale(1.26) rotate(4)"/><use href="#sf" transform="translate(424,475) scale(0.51) rotate(2)"/><use href="#sf" transform="translate(1193,500) scale(0.72) rotate(0)"/><use href="#sf" transform="translate(703,444) scale(0.40) rotate(12)"/><use href="#sf" transform="translate(466,492) scale(0.73) rotate(12)"/><use href="#sf" transform="translate(980,520) scale(0.90) rotate(10)"/><use href="#sf" transform="translate(1099,464) scale(0.49) rotate(-1)"/><use href="#sf" transform="translate(724,452) scale(0.35) rotate(2)"/><use href="#sf" transform="translate(312,468) scale(0.44) rotate(10)"/><use href="#sf" transform="translate(274,455) scale(0.36) rotate(7)"/><use href="#sf" transform="translate(501,446) scale(0.30) rotate(9)"/><use href="#sf" transform="translate(664,471) scale(0.46) rotate(-12)"/><use href="#sf" transform="translate(1082,498) scale(0.71) rotate(12)"/><use href="#sf" transform="translate(624,460) scale(0.39) rotate(1)"/><use href="#sf" transform="translate(853,485) scale(0.75) rotate(7)"/><use href="#sf" transform="translate(181,458) scale(0.31) rotate(-1)"/><use href="#sf" transform="translate(347,475) scale(0.47) rotate(12)"/><use href="#sf" transform="translate(316,523) scale(0.91) rotate(6)"/><use href="#sf" transform="translate(1008,453) scale(0.32) rotate(10)"/><use href="#sf" transform="translate(769,604) scale(1.74) rotate(-11)"/><use href="#sf" transform="translate(1003,466) scale(0.45) rotate(1)"/><use href="#sf" transform="translate(575,455) scale(0.36) rotate(-8)"/><use href="#sf" transform="translate(559,472) scale(0.45) rotate(5)"/><use href="#sf" transform="translate(11,549) scale(1.32) rotate(-8)"/><use href="#sf" transform="translate(285,498) scale(0.66) rotate(-5)"/><use href="#sf" transform="translate(634,448) scale(0.35) rotate(4)"/><use href="#sf" transform="translate(186,464) scale(0.53) rotate(-8)"/><use href="#sf" transform="translate(1167,473) scale(0.55) rotate(11)"/><use href="#sf" transform="translate(379,561) scale(1.29) rotate(-12)"/><use href="#sf" transform="translate(1137,527) scale(0.99) rotate(3)"/><use href="#sf" transform="translate(263,492) scale(0.67) rotate(-1)"/><use href="#sf" transform="translate(977,467) scale(0.50) rotate(-5)"/><use href="#sf" transform="translate(521,559) scale(1.25) rotate(3)"/><use href="#sf" transform="translate(913,452) scale(0.34) rotate(-9)"/><use href="#sf" transform="translate(501,598) scale(1.78) rotate(4)"/><use href="#sf" transform="translate(59,466) scale(0.47) rotate(-2)"/><use href="#sf" transform="translate(13,445) scale(0.36) rotate(6)"/><use href="#sf" transform="translate(1061,449) scale(0.34) rotate(-4)"/><use href="#sf" transform="translate(174,492) scale(0.65) rotate(7)"/><use href="#sf" transform="translate(32,474) scale(0.50) rotate(-10)"/><use href="#sf" transform="translate(589,450) scale(0.29) rotate(-6)"/><use href="#sf" transform="translate(652,449) scale(0.29) rotate(7)"/><use href="#sf" transform="translate(590,487) scale(0.72) rotate(0)"/><use href="#sf" transform="translate(1033,528) scale(0.91) rotate(-12)"/><use href="#sf" transform="translate(827,455) scale(0.33) rotate(-12)"/><use href="#sf" transform="translate(1120,560) scale(1.36) rotate(-8)"/><use href="#sf" transform="translate(990,466) scale(0.45) rotate(0)"/><use href="#sf" transform="translate(13,491) scale(0.70) rotate(-9)"/><use href="#sf" transform="translate(165,446) scale(0.38) rotate(-11)"/><use href="#sf" transform="translate(434,525) scale(0.95) rotate(1)"/><use href="#sf" transform="translate(939,451) scale(0.41) rotate(-9)"/><use href="#sf" transform="translate(764,519) scale(0.90) rotate(-7)"/><use href="#sf" transform="translate(280,473) scale(0.48) rotate(0)"/><use href="#sf" transform="translate(649,520) scale(0.99) rotate(0)"/><use href="#sf" transform="translate(34,448) scale(0.30) rotate(5)"/><use href="#sf" transform="translate(261,523) scale(0.96) rotate(2)"/><use href="#sf" transform="translate(603,554) scale(1.27) rotate(10)"/><use href="#sf" transform="translate(1017,497) scale(0.71) rotate(-3)"/><use href="#sf" transform="translate(574,444) scale(0.37) rotate(11)"/><use href="#sf" transform="translate(299,456) scale(0.31) rotate(-11)"/><use href="#sf" transform="translate(801,496) scale(0.73) rotate(3)"/><use href="#sf" transform="translate(373,528) scale(0.93) rotate(-4)"/><use href="#sf" transform="translate(639,470) scale(0.49) rotate(-5)"/><use href="#sf" transform="translate(-8,446) scale(0.34) rotate(1)"/><use href="#sf" transform="translate(40,599) scale(1.86) rotate(4)"/><use href="#sf" transform="translate(145,454) scale(0.37) rotate(-2)"/><use href="#sf" transform="translate(923,490) scale(0.69) rotate(-11)"/><use href="#sf" transform="translate(567,559) scale(1.27) rotate(4)"/><use href="#sf" transform="translate(1149,473) scale(0.55) rotate(5)"/><use href="#sf" transform="translate(1117,468) scale(0.48) rotate(0)"/><use href="#sf" transform="translate(93,550) scale(1.35) rotate(12)"/><use href="#sf" transform="translate(217,488) scale(0.70) rotate(1)"/><use href="#sf" transform="translate(459,527) scale(0.96) rotate(-5)"/><use href="#sf" transform="translate(760,495) scale(0.70) rotate(11)"/><use href="#sf" transform="translate(1138,475) scale(0.45) rotate(-10)"/><use href="#sf" transform="translate(-21,448) scale(0.37) rotate(0)"/><use href="#sf" transform="translate(432,495) scale(0.74) rotate(4)"/><use href="#sf" transform="translate(292,472) scale(0.48) rotate(12)"/><use href="#sf" transform="translate(412,512) scale(0.89) rotate(11)"/><use href="#sf" transform="translate(842,468) scale(0.55) rotate(3)"/><use href="#sf" transform="translate(-1,477) scale(0.54) rotate(-4)"/><use href="#sf" transform="translate(903,474) scale(0.44) rotate(-6)"/><use href="#sf" transform="translate(247,451) scale(0.32) rotate(9)"/><use href="#sf" transform="translate(1075,454) scale(0.33) rotate(5)"/><use href="#sf" transform="translate(874,489) scale(0.73) rotate(8)"/><use href="#sf" transform="translate(383,444) scale(0.40) rotate(-6)"/><use href="#sf" transform="translate(1015,450) scale(0.38) rotate(10)"/><use href="#sf" transform="translate(366,484) scale(0.75) rotate(3)"/><use href="#sf" transform="translate(156,458) scale(0.39) rotate(-10)"/><use href="#sf" transform="translate(1177,460) scale(0.40) rotate(-8)"/><use href="#sf" transform="translate(-3,494) scale(0.68) rotate(-4)"/><use href="#sf" transform="translate(882,477) scale(0.52) rotate(-11)"/><use href="#sf" transform="translate(306,493) scale(0.66) rotate(6)"/><use href="#sf" transform="translate(829,475) scale(0.52) rotate(10)"/><use href="#sf" transform="translate(220,473) scale(0.50) rotate(-5)"/><use href="#sf" transform="translate(119,478) scale(0.50) rotate(-3)"/><use href="#sf" transform="translate(681,490) scale(0.73) rotate(0)"/><use href="#sf" transform="translate(410,474) scale(0.51) rotate(5)"/><use href="#sf" transform="translate(1123,453) scale(0.37) rotate(-3)"/><use href="#sf" transform="translate(1007,552) scale(1.33) rotate(-5)"/><use href="#sf" transform="translate(410,563) scale(1.25) rotate(10)"/><use href="#sf" transform="translate(832,517) scale(0.93) rotate(4)"/><use href="#sf" transform="translate(226,520) scale(0.98) rotate(-9)"/><use href="#sf" transform="translate(462,455) scale(0.30) rotate(-1)"/><use href="#sf" transform="translate(797,447) scale(0.40) rotate(0)"/><use href="#sf" transform="translate(683,447) scale(0.30) rotate(5)"/><use href="#sf" transform="translate(987,598) scale(1.82) rotate(3)"/><use href="#sf" transform="translate(813,457) scale(0.33) rotate(-6)"/><use href="#sf" transform="translate(332,452) scale(0.36) rotate(-1)"/><use href="#sf" transform="translate(966,455) scale(0.41) rotate(-12)"/><use href="#sf" transform="translate(709,528) scale(0.95) rotate(11)"/><use href="#sf" transform="translate(757,471) scale(0.52) rotate(-8)"/><use href="#sf" transform="translate(965,554) scale(1.28) rotate(-4)"/><use href="#sf" transform="translate(65,450) scale(0.37) rotate(3)"/><use href="#sf" transform="translate(293,556) scale(1.25) rotate(-3)"/><use href="#sf" transform="translate(241,456) scale(0.31) rotate(-5)"/><use href="#sf" transform="translate(438,451) scale(0.38) rotate(0)"/><use href="#sf" transform="translate(926,478) scale(0.46) rotate(-10)"/><use href="#sf" transform="translate(1204,445) scale(0.29) rotate(8)"/><use href="#sf" transform="translate(140,489) scale(0.69) rotate(-5)"/><use href="#sf" transform="translate(516,528) scale(0.95) rotate(-1)"/><use href="#sf" transform="translate(-26,514) scale(0.98) rotate(7)"/><use href="#sf" transform="translate(196,445) scale(0.38) rotate(-6)"/><use href="#sf" transform="translate(1090,551) scale(1.36) rotate(-7)"/><use href="#sf" transform="translate(862,470) scale(0.52) rotate(-5)"/><use href="#sf" transform="translate(167,513) scale(0.91) rotate(-6)"/><use href="#sf" transform="translate(365,459) scale(0.30) rotate(-3)"/><use href="#sf" transform="translate(626,473) scale(0.52) rotate(-8)"/><use href="#sf" transform="translate(987,459) scale(0.40) rotate(-5)"/><use href="#sf" transform="translate(608,470) scale(0.53) rotate(-2)"/><use href="#sf" transform="translate(-21,492) scale(0.75) rotate(-2)"/><use href="#sf" transform="translate(477,495) scale(0.64) rotate(-6)"/><use href="#sf" transform="translate(127,459) scale(0.29) rotate(1)"/><use href="#sf" transform="translate(1197,518) scale(0.96) rotate(0)"/><use href="#sf" transform="translate(249,605) scale(1.77) rotate(-2)"/><use href="#sf" transform="translate(59,550) scale(1.25) rotate(11)"/><use href="#sf" transform="translate(201,520) scale(0.93) rotate(9)"/><use href="#sf" transform="translate(88,453) scale(0.39) rotate(-5)"/><use href="#sf" transform="translate(1029,603) scale(1.82) rotate(9)"/><use href="#sf" transform="translate(268,449) scale(0.32) rotate(-4)"/><use href="#sf" transform="translate(199,499) scale(0.76) rotate(10)"/><use href="#sf" transform="translate(67,499) scale(0.64) rotate(-7)"/><use href="#sf" transform="translate(94,453) scale(0.35) rotate(4)"/><use href="#sf" transform="translate(449,471) scale(0.45) rotate(3)"/><use href="#sf" transform="translate(332,473) scale(0.49) rotate(-10)"/><use href="#sf" transform="translate(824,603) scale(1.77) rotate(6)"/><use href="#sf" transform="translate(693,497) scale(0.69) rotate(-7)"/><use href="#sf" transform="translate(347,605) scale(1.79) rotate(3)"/><use href="#sf" transform="translate(1044,456) scale(0.37) rotate(4)"/><use href="#sf" transform="translate(283,524) scale(0.99) rotate(11)"/><use href="#sf" transform="translate(209,451) scale(0.34) rotate(0)"/><use href="#sf" transform="translate(719,465) scale(0.46) rotate(-5)"/><use href="#sf" transform="translate(886,558) scale(1.30) rotate(-7)"/><use href="#sf" transform="translate(1089,601) scale(1.81) rotate(12)"/><use href="#sf" transform="translate(778,452) scale(0.41) rotate(-8)"/><use href="#sf" transform="translate(1036,465) scale(0.55) rotate(-10)"/><use href="#sf" transform="translate(837,444) scale(0.33) rotate(0)"/><use href="#sf" transform="translate(486,444) scale(0.40) rotate(3)"/><use href="#sf" transform="translate(729,513) scale(0.95) rotate(-11)"/><use href="#sf" transform="translate(291,456) scale(0.34) rotate(0)"/><use href="#sf" transform="translate(160,494) scale(0.76) rotate(-7)"/><use href="#sf" transform="translate(1053,484) scale(0.76) rotate(7)"/><use href="#sf" transform="translate(788,470) scale(0.53) rotate(-5)"/><use href="#sf" transform="translate(527,454) scale(0.39) rotate(-10)"/><use href="#sf" transform="translate(914,452) scale(0.36) rotate(-10)"/><use href="#sf" transform="translate(156,462) scale(0.50) rotate(-3)"/><use href="#sf" transform="translate(710,454) scale(0.41) rotate(7)"/><use href="#sf" transform="translate(837,558) scale(1.26) rotate(4)"/><use href="#sf" transform="translate(335,564) scale(1.34) rotate(3)"/><use href="#sf" transform="translate(1054,451) scale(0.33) rotate(10)"/><use href="#sf" transform="translate(790,518) scale(0.94) rotate(-8)"/><use href="#sf" transform="translate(651,495) scale(0.69) rotate(1)"/><use href="#sf" transform="translate(932,457) scale(0.36) rotate(-4)"/><use href="#sf" transform="translate(-25,553) scale(1.36) rotate(-1)"/><use href="#sf" transform="translate(762,446) scale(0.37) rotate(-6)"/><use href="#sf" transform="translate(356,487) scale(0.70) rotate(8)"/><use href="#sf" transform="translate(116,458) scale(0.36) rotate(-3)"/><use href="#sf" transform="translate(904,496) scale(0.74) rotate(7)"/><use href="#sf" transform="translate(651,448) scale(0.36) rotate(3)"/><use href="#sf" transform="translate(1102,460) scale(0.29) rotate(12)"/><use href="#sf" transform="translate(990,498) scale(0.74) rotate(5)"/><use href="#sf" transform="translate(1140,460) scale(0.31) rotate(12)"/><use href="#sf" transform="translate(746,450) scale(0.31) rotate(2)"/><use href="#sf" transform="translate(535,456) scale(0.40) rotate(11)"/><use href="#sf" transform="translate(826,488) scale(0.76) rotate(-11)"/><use href="#sf" transform="translate(195,599) scale(1.76) rotate(9)"/><use href="#sf" transform="translate(359,465) scale(0.54) rotate(-11)"/><use href="#sf" transform="translate(245,462) scale(0.44) rotate(-7)"/><use href="#sf" transform="translate(99,488) scale(0.67) rotate(7)"/><use href="#sf" transform="translate(8,468) scale(0.53) rotate(-5)"/><use href="#sf" transform="translate(900,446) scale(0.40) rotate(-4)"/><use href="#sf" transform="translate(961,450) scale(0.34) rotate(-3)"/><use href="#sf" transform="translate(795,471) scale(0.47) rotate(2)"/><use href="#sf" transform="translate(554,495) scale(0.71) rotate(-7)"/><use href="#sf" transform="translate(225,457) scale(0.32) rotate(5)"/><use href="#sf" transform="translate(896,454) scale(0.32) rotate(-10)"/><use href="#sf" transform="translate(309,449) scale(0.33) rotate(-9)"/><use href="#sf" transform="translate(688,477) scale(0.50) rotate(6)"/><use href="#sf" transform="translate(456,550) scale(1.34) rotate(6)"/><use href="#sf" transform="translate(932,598) scale(1.76) rotate(-7)"/><use href="#sf" transform="translate(539,448) scale(0.31) rotate(-12)"/><use href="#sf" transform="translate(54,447) scale(0.38) rotate(5)"/><use href="#sf" transform="translate(926,555) scale(1.28) rotate(-8)"/><use href="#sf" transform="translate(734,485) scale(0.66) rotate(5)"/><use href="#sf" transform="translate(1211,468) scale(0.45) rotate(11)"/><use href="#sf" transform="translate(614,603) scale(1.78) rotate(4)"/><use href="#sf" transform="translate(920,526) scale(0.92) rotate(-7)"/><use href="#sf" transform="translate(466,459) scale(0.33) rotate(-6)"/><use href="#sf" transform="translate(823,469) scale(0.50) rotate(3)"/><use href="#sf" transform="translate(213,449) scale(0.34) rotate(2)"/><use href="#sf" transform="translate(81,454) scale(0.36) rotate(2)"/><use href="#sf" transform="translate(114,460) scale(0.31) rotate(1)"/><use href="#sf" transform="translate(1063,471) scale(0.53) rotate(9)"/><use href="#sf" transform="translate(942,449) scale(0.40) rotate(-6)"/><use href="#sf" transform="translate(377,454) scale(0.32) rotate(11)"/><use href="#sf" transform="translate(1097,524) scale(0.96) rotate(-2)"/><use href="#sf" transform="translate(502,485) scale(0.76) rotate(-6)"/><use href="#sf" transform="translate(1185,475) scale(0.54) rotate(-5)"/><use href="#sf" transform="translate(948,495) scale(0.66) rotate(-9)"/><use href="#sf" transform="translate(531,469) scale(0.55) rotate(2)"/><use href="#sf" transform="translate(98,520) scale(1.01) rotate(4)"/><use href="#sf" transform="translate(255,558) scale(1.29) rotate(-2)"/><use href="#sf" transform="translate(721,603) scale(1.75) rotate(8)"/><use href="#sf" transform="translate(849,446) scale(0.41) rotate(-9)"/><use href="#sf" transform="translate(3,457) scale(0.39) rotate(-11)"/><use href="#sf" transform="translate(864,448) scale(0.39) rotate(1)"/><use href="#sf" transform="translate(133,520) scale(0.95) rotate(7)"/><use href="#sf" transform="translate(99,465) scale(0.47) rotate(10)"/><use href="#sf" transform="translate(5,516) scale(0.92) rotate(3)"/><use href="#sf" transform="translate(686,558) scale(1.25) rotate(-1)"/><use href="#sf" transform="translate(964,485) scale(0.74) rotate(9)"/><use href="#sf" transform="translate(1160,500) scale(0.64) rotate(9)"/><use href="#sf" transform="translate(137,599) scale(1.82) rotate(1)"/><use href="#sf" transform="translate(41,519) scale(0.99) rotate(-10)"/><use href="#sf" transform="translate(1038,495) scale(0.70) rotate(2)"/><use href="#sf" transform="translate(1206,551) scale(1.26) rotate(-4)"/><use href="#sf" transform="translate(639,550) scale(1.33) rotate(3)"/><use href="#sf" transform="translate(410,485) scale(0.71) rotate(-6)"/><use href="#sf" transform="translate(269,476) scale(0.48) rotate(0)"/><use href="#sf" transform="translate(609,457) scale(0.30) rotate(-8)"/><use href="#sf" transform="translate(1012,528) scale(0.93) rotate(-4)"/><use href="#sf" transform="translate(597,460) scale(0.38) rotate(-5)"/><use href="#sf" transform="translate(634,493) scale(0.68) rotate(9)"/><use href="#sf" transform="translate(389,444) scale(0.35) rotate(12)"/><use href="#sf" transform="translate(1169,557) scale(1.27) rotate(1)"/><use href="#sf" transform="translate(1111,448) scale(0.36) rotate(0)"/><use href="#sf" transform="translate(64,522) scale(0.92) rotate(7)"/><use href="#sf" transform="translate(1027,452) scale(0.31) rotate(1)"/><use href="#sf" transform="translate(549,466) scale(0.46) rotate(5)"/><use href="#sf" transform="translate(887,525) scale(1.00) rotate(11)"/><use href="#sf" transform="translate(443,452) scale(0.32) rotate(3)"/><use href="#sf" transform="translate(877,448) scale(0.40) rotate(5)"/><use href="#sf" transform="translate(666,523) scale(0.97) rotate(7)"/><use href="#sf" transform="translate(247,487) scale(0.74) rotate(12)"/><use href="#sf" transform="translate(1081,450) scale(0.31) rotate(-1)"/><use href="#sf" transform="translate(298,599) scale(1.83) rotate(0)"/><use href="#sf" transform="translate(960,471) scale(0.55) rotate(-9)"/><use href="#sf" transform="translate(785,493) scale(0.70) rotate(-7)"/><use href="#sf" transform="translate(1145,607) scale(1.83) rotate(-1)"/><use href="#sf" transform="translate(-15,478) scale(0.45) rotate(5)"/><use href="#sf" transform="translate(752,458) scale(0.30) rotate(-2)"/><use href="#sf" transform="translate(134,555) scale(1.26) rotate(-6)"/><use href="#sf" transform="translate(514,450) scale(0.40) rotate(3)"/><use href="#sf" transform="translate(730,550) scale(1.35) rotate(1)"/><use href="#sf" transform="translate(147,465) scale(0.46) rotate(5)"/><use href="#sf" transform="translate(504,468) scale(0.55) rotate(4)"/><use href="#sf" transform="translate(345,447) scale(0.41) rotate(3)"/><use href="#sf" transform="translate(1095,446) scale(0.32) rotate(3)"/><use href="#sf" transform="translate(20,445) scale(0.39) rotate(5)"/><use href="#sf" transform="translate(47,449) scale(0.36) rotate(-9)"/><use href="#sf" transform="translate(218,551) scale(1.25) rotate(-8)"/><use href="#sf" transform="translate(935,468) scale(0.50) rotate(-5)"/><use href="#sf" transform="translate(621,516) scale(0.90) rotate(2)"/><use href="#sf" transform="translate(735,451) scale(0.35) rotate(10)"/><use href="#sf" transform="translate(777,465) scale(0.45) rotate(-9)"/><use href="#sf" transform="translate(1154,525) scale(0.92) rotate(11)"/><use href="#sf" transform="translate(406,597) scale(1.78) rotate(8)"/><use href="#sf" transform="translate(288,460) scale(0.37) rotate(7)"/><use href="#sf" transform="translate(51,496) scale(0.75) rotate(-4)"/><use href="#sf" transform="translate(597,475) scale(0.49) rotate(0)"/><use href="#sf" transform="translate(805,451) scale(0.37) rotate(-7)"/><use href="#sf" transform="translate(1086,476) scale(0.45) rotate(-7)"/><use href="#sf" transform="translate(426,451) scale(0.39) rotate(7)"/><use href="#sf" transform="translate(89,592) scale(1.77) rotate(-8)"/><use href="#sf" transform="translate(1040,555) scale(1.35) rotate(-2)"/><use href="#sf" transform="translate(528,490) scale(0.74) rotate(-12)"/><use href="#sf" transform="translate(1174,494) scale(0.73) rotate(12)"/><use href="#sf" transform="translate(1107,499) scale(0.65) rotate(0)"/><use href="#sf" transform="translate(734,466) scale(0.51) rotate(-5)"/><use href="#sf" transform="translate(578,470) scale(0.46) rotate(6)"/><use href="#sf" transform="translate(563,598) scale(1.80) rotate(10)"/><use href="#sf" transform="translate(84,466) scale(0.50) rotate(-12)"/><use href="#sf" transform="translate(1046,467) scale(0.55) rotate(8)"/><use href="#sf" transform="translate(399,472) scale(0.53) rotate(-6)"/><use href="#sf" transform="translate(-10,447) scale(0.36) rotate(-1)"/><use href="#sf" transform="translate(1131,497) scale(0.65) rotate(-1)"/><use href="#sf" transform="translate(969,444) scale(0.35) rotate(11)"/><use href="#sf" transform="translate(1189,604) scale(1.77) rotate(9)"/>
</svg>